# xmcd
#
# Track frame offsets: 
#        150
#        14522
#        38052
#        51662
#        73145
#        96275
#        112025
#        128030
#        146980
#        165122
#        181977
#        194757
#        209132
#        229292
#        245780
#        263985
#        285050
#        303482
#
# Disc length: 4292 seconds
#
# Revision: 5
# Processed by: cddbd v1.5.2PL0 Copyright (c) Steve Scherf et al.
# Submitted via: ExactAudioCopyFreeDBPlugin 1.0
#
DISCID=1c10c212
DTITLE=John Denver - Greatest Country Hits
DYEAR=1998
DGENRE=Country
TTITLE0=Take Me Home, Country Roads
TTITLE1=Sunshine on my Shoulders
TTITLE2=Annie's Song
TTITLE3=Back Home Again
TTITLE4=Sweet Surrender (Live)
TTITLE5=Thank God I'm a Country Boy (Live)
TTITLE6=I'm Sorry
TTITLE7=Fly Away
TTITLE8=Looking for Space
TTITLE9=Like a Sad Song
TTITLE10=Baby You Look Good to me Tonight
TTITLE11=How Can I Leave You Again
TTITLE12=What's on your Mind
TTITLE13=Autograph
TTITLE14=Soma Days Are Diamonds (Some Days Are Stone)
TTITLE15=The Cowboy And The Lady
TTITLE16=Wild Montana Skies ft. Emmylou Harris
TTITLE17=Dreamland Express
EXTD=
EXTT0=
EXTT1=
EXTT2=
EXTT3=
EXTT4=
EXTT5=
EXTT6=
EXTT7=
EXTT8=
EXTT9=
EXTT10=
EXTT11=
EXTT12=
EXTT13=
EXTT14=
EXTT15=
EXTT16=
EXTT17=
PLAYORDER=
